<svg xmlns="http://www.w3.org/2000/svg" xmlns:xlink="http://www.w3.org/1999/xlink" viewBox="0 0 50 50" fill="#5B5B5B">
  <path d="M12 0C11.477778 0 10.94539 0.19132887 10.568359 0.56835938C10.191329 0.94538988 10 1.4777778 10 2L10 4L4 4C3.4777778 4 2.9453899 4.1913289 2.5683594 4.5683594C2.1913289 4.9453899 2 5.4777778 2 6L2 14L2 46C2 46.522222 2.1913289 47.05461 2.5683594 47.431641C2.9453899 47.808671 3.4777778 48 4 48L46 48C46.522222 48 47.05461 47.808671 47.431641 47.431641C47.808671 47.05461 48 46.522222 48 46L48 14L48 6C48 5.4777778 47.808671 4.9453899 47.431641 4.5683594C47.05461 4.1913289 46.522222 4 46 4L40 4L40 2C40 1.4777778 39.808671 0.94538988 39.431641 0.56835938C39.05461 0.19132887 38.522222 0 38 0L36 0C35.477778 0 34.94539 0.19132887 34.568359 0.56835938C34.191329 0.94538988 34 1.4777778 34 2L34 4L16 4L16 2C16 1.4777778 15.808671 0.94538988 15.431641 0.56835938C15.05461 0.19132887 14.522222 0 14 0L12 0 z M 12 2L14 2L14 8L12 8L12 2 z M 36 2L38 2L38 4.8320312 A 1.0001 1.0001 0 0 0 38 5.1582031L38 8L36 8L36 2 z M 4 6L10 6L10 8C10 8.5222222 10.191329 9.0546101 10.568359 9.4316406C10.94539 9.8086711 11.477778 10 12 10L14 10C14.522222 10 15.05461 9.8086711 15.431641 9.4316406C15.808671 9.0546101 16 8.5222222 16 8L16 6L34 6L34 8C34 8.5222222 34.191329 9.0546101 34.568359 9.4316406C34.94539 9.8086711 35.477778 10 36 10L38 10C38.522222 10 39.05461 9.8086711 39.431641 9.4316406C39.808671 9.0546101 40 8.5222222 40 8L40 6L46 6L46 13L4 13L4 6 z M 4 15L46 15L46 46L4 46L4 15 z M 17.984375 18.986328 A 1.0001 1.0001 0 0 0 17.841797 19L11 19 A 1.0001 1.0001 0 0 0 10 20L10 26.832031 A 1.0001 1.0001 0 0 0 10 27.158203L10 33.832031 A 1.0001 1.0001 0 0 0 10 34.158203L10 41 A 1.0001 1.0001 0 0 0 11 42L17.832031 42 A 1.0001 1.0001 0 0 0 18.158203 42L24.832031 42 A 1.0001 1.0001 0 0 0 25.158203 42L30 42L31.832031 42 A 1.0001 1.0001 0 0 0 32.158203 42L39 42 A 1.0001 1.0001 0 0 0 40 41L40 34.167969 A 1.0001 1.0001 0 0 0 40 33.841797L40 27.167969 A 1.0001 1.0001 0 0 0 40 26.841797L40 20 A 1.0001 1.0001 0 0 0 39 19L32.167969 19 A 1.0001 1.0001 0 0 0 31.841797 19L25.167969 19 A 1.0001 1.0001 0 0 0 24.841797 19L18.167969 19 A 1.0001 1.0001 0 0 0 17.984375 18.986328 z M 12 21L17 21L17 26L12 26L12 21 z M 19 21L24 21L24 26L19 26L19 21 z M 26 21L31 21L31 26L26 26L26 21 z M 33 21L38 21L38 26L33 26L33 21 z M 12 28L17 28L17 33L12 33L12 28 z M 19 28L24 28L24 33L19 33L19 28 z M 26 28L31 28L31 33L26 33L26 28 z M 33 28L38 28L38 33L33 33L33 28 z M 12 35L17 35L17 40L12 40L12 35 z M 19 35L24 35L24 40L19 40L19 35 z M 26 35L31 35L31 40L30 40L26 40L26 35 z M 33 35L38 35L38 40L33 40L33 35 z" fill="#5B5B5B" />
</svg>