<svg xmlns="http://www.w3.org/2000/svg" xmlns:xlink="http://www.w3.org/1999/xlink" viewBox="0 0 80 80" fill="#5B5B5B">
  <path d="M30.353516 10C27.923706 10 25.663858 11.261657 24.390625 13.330078L19.056641 22L12 22C7.0414839 22 3 26.041484 3 31L3 55C3 59.254971 6.0189772 62.717751 10 63.646484L10 67C10 68.64497 11.35503 70 13 70L17.558594 70C18.84568 70 19.997125 69.169992 20.404297 67.949219L20.404297 67.947266L21.720703 64L35.833984 64L38.560547 68.542969L38.560547 68.544922C39.102401 69.445969 40.080385 70 41.132812 70L52 70C53.64497 70 55 68.64497 55 67L55 54L61.763672 54L71.763672 59L78 59L78 29L71.763672 29L71.552734 29.105469L61.763672 34L55 34L55 21L59 21C59 22.64497 60.35503 24 62 24L70 24C73.854334 24 77 20.854334 77 17C77 13.145666 73.854334 10 70 10L62 10C60.35503 10 59 11.35503 59 13L53.732422 13C52.464532 11.190482 50.36797 10 48 10L30.353516 10 z M 30.353516 12L48 12C50.773666 12 53 14.226334 53 17L53 34L53 54L53 62 A 1 1 0 0 0 52 63 A 1 1 0 0 0 53 64L53 67C53 67.56503 52.56503 68 52 68L41.132812 68C40.781847 68 40.457711 67.815645 40.275391 67.513672L37.865234 63.498047 A 1 1 0 0 0 38 63 A 1 1 0 0 0 37 62 A 1 1 0 0 0 36.966797 62L20.279297 62L20.267578 62.037109 A 1 1 0 0 0 20 62 A 1 1 0 0 0 19 63 A 1 1 0 0 0 19.634766 63.931641L18.505859 67.316406C18.36857 67.728779 17.992958 68 17.558594 68L13 68C12.43497 68 12 67.56503 12 67L12 64 A 1 1 0 0 0 13 63 A 1 1 0 0 0 12 62 A 1 1 0 0 0 11.789062 62.023438L11.123047 61.939453C7.6696083 61.507883 5 58.579695 5 55L5 31C5 27.122516 8.1225161 24 12 24L20.173828 24L26.09375 14.378906C27.004517 12.899327 28.615325 12 30.353516 12 z M 62 12L70 12C72.773666 12 75 14.226334 75 17C75 19.773666 72.773666 22 70 22L62 22C61.43497 22 61 21.56503 61 21L61 19L55 19L55 17C55 16.30534 54.893215 15.634355 54.703125 15L61 15L61 13C61 12.43497 61.43497 12 62 12 z M 30.554688 15C29.865725 15 29.223829 15.357919 28.859375 15.939453L28.857422 15.939453L23.820312 24L25.625 24L50 24L50 17C50 15.906937 49.093063 15 48 15L30.554688 15 z M 60 16 A 1 1 0 0 0 59 17 A 1 1 0 0 0 60 18 A 1 1 0 0 0 61 17 A 1 1 0 0 0 60 16 z M 30.554688 17L48 17L48 22L27.429688 22L30.552734 17.001953L30.554688 17 z M 12 31 A 1 1 0 0 0 11 32 A 1 1 0 0 0 12 33 A 1 1 0 0 0 13 32 A 1 1 0 0 0 12 31 z M 16 31 A 1 1 0 0 0 15 32 A 1 1 0 0 0 16 33 A 1 1 0 0 0 17 32 A 1 1 0 0 0 16 31 z M 20 31 A 1 1 0 0 0 19 32 A 1 1 0 0 0 20 33 A 1 1 0 0 0 21 32 A 1 1 0 0 0 20 31 z M 24 31 A 1 1 0 0 0 23 32 A 1 1 0 0 0 24 33 A 1 1 0 0 0 25 32 A 1 1 0 0 0 24 31 z M 28 31 A 1 1 0 0 0 27 32 A 1 1 0 0 0 28 33 A 1 1 0 0 0 29 32 A 1 1 0 0 0 28 31 z M 32 31 A 1 1 0 0 0 31 32 A 1 1 0 0 0 32 33 A 1 1 0 0 0 33 32 A 1 1 0 0 0 32 31 z M 72.236328 31L76 31L76 57L72.236328 57L62.935547 52.349609 A 1 1 0 0 0 63 52 A 1 1 0 0 0 62 51 A 1 1 0 0 0 61 52L55 52L55 36L61 36 A 1 1 0 0 0 62 37 A 1 1 0 0 0 63 36 A 1 1 0 0 0 62.935547 35.650391L72.236328 31 z M 72 33 A 1 1 0 0 0 71 34 A 1 1 0 0 0 72 35 A 1 1 0 0 0 73 34 A 1 1 0 0 0 72 33 z M 12 35 A 1 1 0 0 0 11 36 A 1 1 0 0 0 12 37 A 1 1 0 0 0 13 36 A 1 1 0 0 0 12 35 z M 32 35 A 1 1 0 0 0 31 36 A 1 1 0 0 0 32 37 A 1 1 0 0 0 33 36 A 1 1 0 0 0 32 35 z M 72 37 A 1 1 0 0 0 71 38 A 1 1 0 0 0 72 39 A 1 1 0 0 0 73 38 A 1 1 0 0 0 72 37 z M 12 39 A 1 1 0 0 0 11 40 A 1 1 0 0 0 12 41 A 1 1 0 0 0 13 40 A 1 1 0 0 0 12 39 z M 32 39 A 1 1 0 0 0 31 40 A 1 1 0 0 0 32 41 A 1 1 0 0 0 33 40 A 1 1 0 0 0 32 39 z M 62 39 A 1 1 0 0 0 61 40 A 1 1 0 0 0 62 41 A 1 1 0 0 0 63 40 A 1 1 0 0 0 62 39 z M 72 41 A 1 1 0 0 0 71 42 A 1 1 0 0 0 72 43 A 1 1 0 0 0 73 42 A 1 1 0 0 0 72 41 z M 12 43 A 1 1 0 0 0 11 44 A 1 1 0 0 0 12 45 A 1 1 0 0 0 13 44 A 1 1 0 0 0 12 43 z M 16 43 A 1 1 0 0 0 15 44 A 1 1 0 0 0 16 45 A 1 1 0 0 0 17 44 A 1 1 0 0 0 16 43 z M 20 43 A 1 1 0 0 0 19 44 A 1 1 0 0 0 20 45 A 1 1 0 0 0 21 44 A 1 1 0 0 0 20 43 z M 24 43 A 1 1 0 0 0 23 44 A 1 1 0 0 0 24 45 A 1 1 0 0 0 25 44 A 1 1 0 0 0 24 43 z M 28 43 A 1 1 0 0 0 27 44 A 1 1 0 0 0 28 45 A 1 1 0 0 0 29 44 A 1 1 0 0 0 28 43 z M 32 43 A 1 1 0 0 0 31 44 A 1 1 0 0 0 32 45 A 1 1 0 0 0 33 44 A 1 1 0 0 0 32 43 z M 62 43 A 1 1 0 0 0 61 44 A 1 1 0 0 0 62 45 A 1 1 0 0 0 63 44 A 1 1 0 0 0 62 43 z M 72 45 A 1 1 0 0 0 71 46 A 1 1 0 0 0 72 47 A 1 1 0 0 0 73 46 A 1 1 0 0 0 72 45 z M 62 47 A 1 1 0 0 0 61 48 A 1 1 0 0 0 62 49 A 1 1 0 0 0 63 48 A 1 1 0 0 0 62 47 z M 72 49 A 1 1 0 0 0 71 50 A 1 1 0 0 0 72 51 A 1 1 0 0 0 73 50 A 1 1 0 0 0 72 49 z M 72 53 A 1 1 0 0 0 71 54 A 1 1 0 0 0 72 55 A 1 1 0 0 0 73 54 A 1 1 0 0 0 72 53 z M 16 62 A 1 1 0 0 0 15 63 A 1 1 0 0 0 16 64 A 1 1 0 0 0 17 63 A 1 1 0 0 0 16 62 z M 41 62 A 1 1 0 0 0 40 63 A 1 1 0 0 0 41 64 A 1 1 0 0 0 42 63 A 1 1 0 0 0 41 62 z M 45 62 A 1 1 0 0 0 44 63 A 1 1 0 0 0 45 64 A 1 1 0 0 0 46 63 A 1 1 0 0 0 45 62 z M 49 62 A 1 1 0 0 0 48 63 A 1 1 0 0 0 49 64 A 1 1 0 0 0 50 63 A 1 1 0 0 0 49 62 z" fill="#5B5B5B" />
</svg>