<svg xmlns="http://www.w3.org/2000/svg" xmlns:xlink="http://www.w3.org/1999/xlink" viewBox="0 0 48 48" fill="#5B5B5B">
  <path d="M8.5 7C5.4802259 7 3 9.4802259 3 12.5L3 30.5C3 33.519774 5.4802259 36 8.5 36L39.5 36C42.519774 36 45 33.519774 45 30.5L45 12.5C45 9.4802259 42.519774 7 39.5 7L8.5 7 z M 8.5 10L39.5 10C40.898226 10 42 11.101774 42 12.5L42 30.5C42 31.898226 40.898226 33 39.5 33L8.5 33C7.1017741 33 6 31.898226 6 30.5L6 12.5C6 11.101774 7.1017741 10 8.5 10 z M 20.955078 15.994141C20.449531 16.017578 20 16.430141 20 16.994141L20 26.003906C20 26.756906 20.800797 27.238672 21.466797 26.888672L30.025391 22.384766C30.737391 22.010766 30.736437 20.990234 30.023438 20.615234L21.464844 16.109375C21.298594 16.021875 21.123594 15.986328 20.955078 15.994141 z M 15.5 39 A 1.50015 1.50015 0 1 0 15.5 42L32.5 42 A 1.50015 1.50015 0 1 0 32.5 39L15.5 39 z" fill="#5B5B5B" />
</svg>